Naruto Shippuuden Episodes 32-46 Manga Edit

Please SEED and Enjoy!

Format                                   : MPEG-4
Codec ID                                 : M4V 
File size                                : 868 MiB
Duration                                 : 4h 0mn
Overall bit rate mode                    : Variable
Overall bit rate                         : 505 Kbps
Encoded date                             : UTC 2012-12-23 15:12:43

Video
ID                                       : 1
Format                                   : AVC
Format/Info                              : Advanced Video Codec
Format profile                           : Baseline@L3.0
Format settings, CABAC                   : No
Format settings, ReFrames                : 2 frames
Codec ID                                 : avc1
Codec ID/Info                            : Advanced Video Coding
Duration                                 : 4h 0mn
Source duration                          : 4h 0mn
Bit rate mode                            : Variable
Bit rate                                 : 376 Kbps
Width                                    : 640 pixels
Height                                   : 480 pixels
Display aspect ratio                     : 4:3
Frame rate mode                          : Variable
Frame rate                               : 23.976 fps
Minimum frame rate                       : 23.976 fps
Maximum frame rate                       : 24.000 fps
Standard                                 : NTSC
Color space                              : YUV
Chroma subsampling                       : 4:2:0
Bit depth                                : 8 bits
Scan type                                : Progressive
Bits/(Pixel*Frame)                       : 0.051
Stream size                              : 647 MiB (75%)
Source stream size                       : 647 MiB (75%)
Language                                 : English
Encoded date                             : UTC 2012-12-23 15:12:43
Tagged date                              : UTC 2012-12-23 15:12:43
mdhd_Duration                            : 14425578

Audio
ID                                       : 2
Format                                   : AAC
Format/Info                              : Advanced Audio Codec
Format profile                           : HE-AAC / LC
Codec ID                                 : 40
Duration                                 : 4h 0mn
Source duration                          : 4h 0mn
Bit rate mode                            : Variable
Bit rate                                 : 127 Kbps
Maximum bit rate                         : 189 Kbps
Channel(s)                               : 2 channels
Channel positions                        : Front: L R
Sampling rate                            : 44.1 KHz / 22.05 KHz
Compression mode                         : Lossy
Stream size                              : 218 MiB (25%)